<svg height="512pt" viewBox="-53 0 512 512" width="512pt" xmlns="http://www.w3.org/2000/svg"><path d="m321.140625 115.140625-17.855469 17.859375 17.855469 17.859375c7.8125 7.808594 7.8125 20.472656 0 28.28125-3.902344 3.90625-9.023437 5.859375-14.140625 5.859375-5.121094 0-10.238281-1.953125-14.144531-5.859375l-17.855469-17.855469-17.859375 17.855469c-3.902344 3.90625-9.023437 5.859375-14.140625 5.859375-5.121094 0-10.238281-1.953125-14.144531-5.859375-7.808594-7.808594-7.808594-20.472656 0-28.28125l17.859375-17.859375-17.859375-17.859375c-7.808594-7.808594-7.808594-20.472656 0-28.28125 7.8125-7.8125 20.476562-7.8125 28.285156 0l17.859375 17.855469 17.855469-17.855469c7.8125-7.8125 20.476562-7.8125 28.285156 0 7.808594 7.808594 7.8125 20.472656 0 28.28125zm-134.007813-20.292969c-7.816406-7.804687-20.480468-7.796875-28.285156.019532l-36.558594 36.613281-14.929687-15.402344c-7.6875-7.929687-20.347656-8.128906-28.28125-.441406-7.929687 7.6875-8.128906 20.351562-.4375 28.28125l29.078125 30c3.730469 3.851562 8.851562 6.042969 14.210938 6.082031h.148437c5.308594 0 10.398437-2.109375 14.152344-5.871094l50.921875-51c7.804687-7.8125 7.796875-20.476562-.019532-28.28125zm139.867188 158.210938c0-11.046875-8.953125-20-20-20h-64c-11.046875 0-20 8.953125-20 20s8.953125 20 20 20h64c11.046875 0 20-8.953125 20-20zm-163-20.058594h-64c-11.046875 0-20 8.953125-20 20s8.953125 20 20 20h64c11.046875 0 20-8.953125 20-20s-8.953125-20-20-20zm79 74c-11.046875 0-20 8.953125-20 20s8.953125 20 20 20h44c11.046875 0 20-8.953125 20-20s-8.953125-20-20-20zm-79-.058594h-64c-11.046875 0-20 8.953125-20 20s8.953125 20 20 20h64c11.046875 0 20-8.953125 20-20s-8.953125-20-20-20zm0 73.058594h-64c-11.046875 0-20 8.953125-20 20s8.953125 20 20 20h64c11.046875 0 20-8.953125 20-20s-8.953125-20-20-20zm221.886719-28c11.046875 0 20-8.953125 20-20v-252c0-44.113281-35.886719-80-80-80h-245.886719c-44.113281 0-80 35.886719-80 80v352c0 44.113281 35.886719 80 80 80h245.890625c44.109375 0 80-35.886719 80-80 0-11.046875-8.957031-20-20-20-11.046875 0-20 8.953125-20 20 0 22.054688-17.945313 40-40 40h-245.890625c-22.054688 0-40-17.945312-40-40v-352c0-22.054688 17.945312-40 40-40h245.890625c22.054687 0 40 17.945312 40 40v252c-.003906 11.046875 8.953125 20 19.996094 20zm0 0"/></svg>